<svg width="24" height="24" viewBox="0 0 24 24" fill="none" xmlns="http://www.w3.org/2000/svg">
<path d="M12.01 17.6765C15.048 17.6765 17.51 15.2145 17.51 12.1765C17.51 9.139 15.048 6.6765 12.01 6.6765C8.97251 6.6765 6.51001 9.139 6.51001 12.1765C6.51001 15.2145 8.97251 17.6765 12.01 17.6765Z" stroke="#111111" stroke-width="2" stroke-linejoin="round"/>
<path d="M19.48 4.505L18.25 5.742M5.5335 18.3725L4.5105 19.402M12 20.6765V22.1765M22 11.677H20M18.766 18.168L20 19.402" stroke="#111111" stroke-width="2" stroke-linecap="round"/>
<path fill-rule="evenodd" clip-rule="evenodd" d="M12.01 8.677C11.5504 8.677 11.0953 8.76753 10.6706 8.94342C10.246 9.11931 9.86014 9.37712 9.53514 9.70213C9.21013 10.0271 8.95232 10.413 8.77643 10.8376C8.60054 11.2622 8.51001 11.7174 8.51001 12.177C8.51001 12.6366 8.60054 13.0918 8.77643 13.5164C8.95232 13.941 9.21013 14.3269 9.53514 14.6519C9.86014 14.9769 10.246 15.2347 10.6706 15.4106C11.0953 15.5865 11.5504 15.677 12.01 15.677" fill="#111111"/>
<path d="M2 12.177H4M5.022 4.505L6.0485 5.5315M12 1.677V3.677" stroke="#111111" stroke-width="2" stroke-linecap="round"/>
</svg>
