<svg width="146" height="38" viewBox="0 0 146 38" fill="none" xmlns="http://www.w3.org/2000/svg">
<path d="M1 0.86375H37.2725V37.1362H1V0.86375Z" fill="white"/>
<path d="M3.59417 3.45792H34.6875V34.5513H3.59417V3.45792Z" fill="#00B8F0"/>
<path d="M34.7242 5.62125V33.5154C34.7293 33.6576 34.7051 33.7994 34.653 33.9318C34.6009 34.0643 34.5221 34.1846 34.4214 34.2852C34.3208 34.3858 34.2005 34.4646 34.0681 34.5167C33.9356 34.5688 33.7939 34.593 33.6517 34.5879H5.7575C5.75267 30.7826 6.49862 27.0137 7.95263 23.4971C9.40663 19.9806 11.5401 16.7854 14.2309 14.0946C16.9216 11.4039 20.1168 9.27038 23.6334 7.81638C27.15 6.36237 30.9188 5.61642 34.7242 5.62125Z" fill="#FF6242"/>
<path d="M34.7242 9.95708L34.7242 33.5154C34.7293 33.6576 34.7051 33.7994 34.653 33.9318C34.6009 34.0643 34.5221 34.1846 34.4214 34.2852C34.3208 34.3858 34.2005 34.4646 34.0681 34.5167C33.9356 34.5688 33.7939 34.593 33.6517 34.5879L10.0933 34.5879C10.0885 31.352 10.7223 28.1469 11.9584 25.1564C13.1945 22.1659 15.0086 19.4487 17.2968 17.1605C19.5849 14.8724 22.3021 13.0583 25.2926 11.8222C28.2832 10.5861 31.4882 9.95226 34.7242 9.95708Z" fill="#FFE500"/>
<path d="M34.7242 14.4213L34.7242 33.5154C34.7293 33.6576 34.7051 33.7994 34.653 33.9318C34.6009 34.0643 34.5221 34.1846 34.4214 34.2852C34.3208 34.3858 34.2005 34.4646 34.0681 34.5167C33.9356 34.5688 33.7939 34.593 33.6517 34.5879L14.5575 34.5879C14.5575 29.2394 16.6822 24.1099 20.4642 20.3279C24.2462 16.5459 29.3756 14.4213 34.7242 14.4213Z" fill="#00DBA8"/>
<path d="M34.7242 18.7571L34.7242 33.5154C34.7293 33.6576 34.7051 33.7994 34.653 33.9318C34.6009 34.0643 34.5221 34.1846 34.4214 34.2852C34.3208 34.3858 34.2005 34.4646 34.0681 34.5167C33.9356 34.5688 33.7939 34.593 33.6517 34.5879L18.8933 34.5879C18.8885 32.5076 19.2947 30.4469 20.0885 28.524C20.8824 26.6011 22.0483 24.854 23.5193 23.383C24.9903 21.9121 26.7374 20.7461 28.6603 19.9523C30.5831 19.1584 32.6439 18.7522 34.7242 18.7571Z" fill="#BF8DF2"/>
<path d="M34.7242 22.9004L34.7242 33.5154C34.7293 33.6576 34.7051 33.7994 34.653 33.9318C34.6009 34.0643 34.5221 34.1846 34.4214 34.2852C34.3208 34.3858 34.2005 34.4646 34.0681 34.5167C33.9356 34.5688 33.7939 34.593 33.6517 34.5879L23.0367 34.5879C23.0318 33.0517 23.3308 31.5298 23.9165 30.1096C24.5021 28.6894 25.3628 27.3991 26.4491 26.3128C27.5353 25.2266 28.8257 24.3659 30.2458 23.7802C31.666 23.1946 33.188 22.8956 34.7242 22.9004Z" fill="#00B8F0"/>
<path d="M1 0.86375V0.197084H0.333333V0.86375H1ZM37.2725 0.86375H37.9392V0.197084H37.2725V0.86375ZM37.2725 37.1362V37.8029H37.9392V37.1362H37.2725ZM1 37.1362H0.333333V37.8029H1V37.1362ZM3.59417 3.45792V2.79125H2.9275V3.45792H3.59417ZM34.6875 3.45792H35.3542V2.79125H34.6875V3.45792ZM34.6875 34.5513V35.2179H35.3542V34.5513H34.6875ZM3.59417 34.5513H2.9275V35.2179H3.59417V34.5513ZM34.7242 5.62125H35.3908C35.3908 5.25339 35.0929 4.95505 34.725 4.95458L34.7242 5.62125ZM34.7242 33.5154H34.0575C34.0575 33.5234 34.0576 33.5314 34.0579 33.5394L34.7242 33.5154ZM33.6517 34.5879L33.6757 33.9217C33.6677 33.9214 33.6597 33.9212 33.6517 33.9212V34.5879ZM5.7575 34.5879L5.09083 34.5888C5.0913 34.9566 5.38964 35.2546 5.7575 35.2546V34.5879ZM34.7242 9.95708H35.3908C35.3908 9.58928 35.093 9.29097 34.7252 9.29042L34.7242 9.95708ZM10.0933 34.5879L9.42667 34.5889C9.42722 34.9567 9.72553 35.2546 10.0933 35.2546V34.5879ZM34.7242 14.4213H35.3908C35.3908 14.2444 35.3206 14.0749 35.1956 13.9498C35.0705 13.8248 34.901 13.7546 34.7242 13.7546V14.4213ZM14.5575 34.5879H13.8908C13.8908 34.7647 13.9611 34.9343 14.0861 35.0593C14.2111 35.1843 14.3807 35.2546 14.5575 35.2546V34.5879ZM34.7242 18.7571H35.3908C35.3908 18.3895 35.0933 18.0913 34.7257 18.0904L34.7242 18.7571ZM18.8933 34.5879L18.2267 34.5895C18.2275 34.9571 18.5257 35.2546 18.8933 35.2546V34.5879ZM34.7242 22.9004H35.3908C35.3908 22.5331 35.0936 22.2349 34.7263 22.2338L34.7242 22.9004ZM23.0367 34.5879L22.37 34.59C22.3712 34.9574 22.6693 35.2546 23.0367 35.2546V34.5879ZM1 1.53042H37.2725V0.197084H1V1.53042ZM36.6058 0.86375V37.1362H37.9392V0.86375H36.6058ZM37.2725 36.4696H1V37.8029H37.2725V36.4696ZM1.66667 37.1362V0.86375H0.333333V37.1362H1.66667ZM3.59417 4.12458H34.6875V2.79125H3.59417V4.12458ZM34.0208 3.45792V34.5513H35.3542V3.45792H34.0208ZM34.6875 33.8846H3.59417V35.2179H34.6875V33.8846ZM4.26083 34.5513V3.45792H2.9275V34.5513H4.26083ZM34.0575 5.62125V33.5154H35.3908V5.62125H34.0575ZM34.0579 33.5394C34.0598 33.5901 34.0511 33.6407 34.0326 33.6879L35.2734 34.1758C35.359 33.9581 35.3988 33.7251 35.3904 33.4914L34.0579 33.5394ZM34.0326 33.6879C34.014 33.7351 33.9859 33.7779 33.95 33.8138L34.8929 34.7566C35.0582 34.5912 35.1878 34.3935 35.2734 34.1758L34.0326 33.6879ZM33.95 33.8138C33.9142 33.8497 33.8713 33.8778 33.8241 33.8963L34.3121 35.1371C34.5298 35.0515 34.7275 34.922 34.8929 34.7566L33.95 33.8138ZM33.8241 33.8963C33.7769 33.9149 33.7264 33.9235 33.6757 33.9217L33.6276 35.2541C33.8614 35.2626 34.0944 35.2228 34.3121 35.1371L33.8241 33.8963ZM33.6517 33.9212H5.7575V35.2546H33.6517V33.9212ZM6.42417 34.5871C6.41945 30.8694 7.14821 27.1874 8.56871 23.7519L7.33654 23.2424C5.84904 26.84 5.0859 30.6958 5.09083 34.5888L6.42417 34.5871ZM8.56871 23.7519C9.9892 20.3163 12.0735 17.1948 14.7023 14.566L13.7595 13.6232C11.0067 16.376 8.82405 19.6448 7.33654 23.2424L8.56871 23.7519ZM14.7023 14.566C17.331 11.9373 20.4526 9.85295 23.8881 8.43246L23.3787 7.20029C19.781 8.6878 16.5122 10.8705 13.7595 13.6232L14.7023 14.566ZM23.8881 8.43246C27.3237 7.01196 31.0057 6.2832 34.7233 6.28792L34.725 4.95458C30.832 4.94965 26.9763 5.71279 23.3787 7.20029L23.8881 8.43246ZM34.0575 9.95708L34.0575 33.5154H35.3908L35.3908 9.95708H34.0575ZM33.6517 33.9212L10.0933 33.9212V35.2546L33.6517 35.2546V33.9212ZM10.76 34.5869C10.7553 31.4387 11.3719 28.3205 12.5745 25.4111L11.3423 24.9017C10.0727 27.9733 9.42171 31.2653 9.42667 34.5889L10.76 34.5869ZM12.5745 25.4111C13.7771 22.5016 15.5421 19.858 17.7682 17.6319L16.8254 16.6891C14.4752 19.0393 12.6119 21.8301 11.3423 24.9017L12.5745 25.4111ZM17.7682 17.6319C19.9943 15.4058 22.6378 13.6409 25.5473 12.4383L25.038 11.2061C21.9664 12.4757 19.1755 14.3389 16.8254 16.6891L17.7682 17.6319ZM25.5473 12.4383C28.4568 11.2357 31.575 10.6191 34.7232 10.6238L34.7252 9.29042C31.4015 9.28546 28.1096 9.93644 25.038 11.2061L25.5473 12.4383ZM34.0575 14.4213L34.0575 33.5154H35.3908L35.3908 14.4213H34.0575ZM33.6517 33.9212L14.5575 33.9212V35.2546L33.6517 35.2546V33.9212ZM15.2242 34.5879C15.2242 29.4162 17.2786 24.4563 20.9356 20.7993L19.9928 19.8565C16.0858 23.7635 13.8908 29.0626 13.8908 34.5879H15.2242ZM20.9356 20.7993C24.5925 17.1424 29.5524 15.0879 34.7242 15.0879V13.7546C29.1988 13.7546 23.8998 15.9495 19.9928 19.8565L20.9356 20.7993ZM34.0575 18.7571L34.0575 33.5154H35.3908L35.3908 18.7571H34.0575ZM33.6517 33.9212L18.8933 33.9212V35.2546L33.6517 35.2546V33.9212ZM19.56 34.5864C19.5554 32.5939 19.9444 30.6201 20.7048 28.7784L19.4723 28.2696C18.6449 30.2736 18.2216 32.4214 18.2267 34.5895L19.56 34.5864ZM20.7048 28.7784C21.4651 26.9367 22.5818 25.2634 23.9907 23.8545L23.0479 22.9116C21.5148 24.4447 20.2997 26.2656 19.4723 28.2696L20.7048 28.7784ZM23.9907 23.8545C25.3996 22.4455 27.073 21.3289 28.9147 20.5685L28.4058 19.3361C26.4018 20.1634 24.581 21.3786 23.0479 22.9116L23.9907 23.8545ZM28.9147 20.5685C30.7564 19.8081 32.7301 19.4191 34.7226 19.4237L34.7257 18.0904C32.5576 18.0854 30.4099 18.5087 28.4058 19.3361L28.9147 20.5685ZM34.0575 22.9004L34.0575 33.5154H35.3908L35.3908 22.9004H34.0575ZM33.6517 33.9212L23.0367 33.9213V35.2546L33.6517 35.2546V33.9212ZM23.7033 34.5858C23.6988 33.1375 23.9807 31.7027 24.5328 30.3637L23.3001 29.8554C22.681 31.3569 22.3649 32.9659 22.37 34.59L23.7033 34.5858ZM24.5328 30.3637C25.0849 29.0248 25.8964 27.8083 26.9205 26.7842L25.9777 25.8414C24.8293 26.9898 23.9193 28.354 23.3001 29.8554L24.5328 30.3637ZM26.9205 26.7842C27.9446 25.7601 29.1611 24.9487 30.5 24.3965L29.9917 23.1639C28.4902 23.783 27.1261 24.693 25.9777 25.8414L26.9205 26.7842ZM30.5 24.3965C31.8389 23.8444 33.2738 23.5625 34.7221 23.5671L34.7263 22.2338C33.1022 22.2286 31.4931 22.5447 29.9917 23.1639L30.5 24.3965Z" fill="#45413C"/>
<path d="M48.6777 9.51328C48.0161 9.51328 47.4291 9.36447 46.9167 9.06684C46.4043 8.76275 46.0022 8.34866 45.7103 7.82458C45.4185 7.29403 45.2725 6.68583 45.2725 6C45.2725 5.31417 45.4185 4.70921 45.7103 4.18513C46.0022 3.65458 46.4011 3.24049 46.907 2.94286C47.4194 2.63877 48.0064 2.48672 48.668 2.48672C49.135 2.48672 49.5695 2.57083 49.9716 2.73905C50.3738 2.90081 50.724 3.1305 51.0224 3.42812C51.3272 3.71928 51.5607 4.05572 51.7229 4.43746L50.4873 4.89361C50.377 4.65421 50.2311 4.44717 50.0495 4.27247C49.8679 4.09131 49.6603 3.9522 49.4268 3.85515C49.1933 3.75163 48.9404 3.69987 48.668 3.69987C48.2723 3.69987 47.9188 3.80015 47.6075 4.00073C47.3026 4.19483 47.0627 4.46334 46.8875 4.80626C46.7189 5.14918 46.6346 5.54709 46.6346 6C46.6346 6.45291 46.7221 6.85406 46.8973 7.20345C47.0724 7.54636 47.3156 7.81811 47.6269 8.01868C47.9383 8.21279 48.295 8.30984 48.6971 8.30984C48.976 8.30984 49.229 8.25808 49.456 8.15456C49.6895 8.04456 49.8938 7.89575 50.0689 7.70812C50.2505 7.52048 50.3965 7.30373 50.5067 7.05787L51.7423 7.50431C51.5802 7.89898 51.3467 8.24837 51.0418 8.55247C50.7435 8.85656 50.3932 9.09273 49.9911 9.26095C49.589 9.42917 49.1512 9.51328 48.6777 9.51328Z" fill="white"/>
<path d="M64.5417 9.50843C63.8542 9.50843 63.2445 9.35962 62.7126 9.06199C62.1873 8.7579 61.7754 8.34381 61.4771 7.81973C61.1787 7.28918 61.0295 6.68422 61.0295 6.00485C61.0295 5.31255 61.1787 4.70436 61.4771 4.18028C61.7754 3.64972 62.184 3.23564 62.7029 2.93801C63.2283 2.64038 63.8315 2.49157 64.5125 2.49157C65.2 2.49157 65.8032 2.64362 66.3221 2.94771C66.8475 3.24534 67.2594 3.65943 67.5577 4.18998C67.8561 4.71406 68.0052 5.31902 68.0052 6.00485C68.0052 6.68422 67.8561 7.28918 67.5577 7.81973C67.2658 8.34381 66.8572 8.7579 66.3319 9.06199C65.813 9.35962 65.2163 9.50843 64.5417 9.50843ZM64.5417 8.29528C64.9568 8.29528 65.32 8.19823 65.6314 8.00413C65.9492 7.80355 66.1956 7.5318 66.3708 7.18889C66.5524 6.84597 66.6432 6.45129 66.6432 6.00485C66.6432 5.55194 66.5524 5.15403 66.3708 4.81111C66.1892 4.4682 65.9394 4.19969 65.6216 4.00558C65.3038 3.80501 64.9341 3.70472 64.5125 3.70472C64.1039 3.70472 63.7374 3.80501 63.4131 4.00558C63.0953 4.19969 62.8456 4.4682 62.664 4.81111C62.4824 5.15403 62.3916 5.55194 62.3916 6.00485C62.3916 6.45129 62.4824 6.84597 62.664 7.18889C62.8456 7.5318 63.0986 7.80355 63.4229 8.00413C63.7472 8.19823 64.1201 8.29528 64.5417 8.29528Z" fill="white"/>
<path d="M77.2924 9.39682V2.60318H78.7421L80.7268 5.53415L82.7115 2.60318H84.1514V9.39682H82.8283V4.68009L80.7268 7.76635L78.6253 4.6898V9.39682H77.2924Z" fill="white"/>
<path d="M93.4386 9.39682V2.60318H95.9681C96.4481 2.60318 96.8729 2.70023 97.2427 2.89434C97.6124 3.08197 97.901 3.34724 98.1085 3.69016C98.3161 4.02661 98.4199 4.41805 98.4199 4.86449C98.4199 5.30446 98.3193 5.6959 98.1183 6.03882C97.9172 6.38174 97.6415 6.65348 97.2913 6.85406C96.9411 7.04816 96.5357 7.14521 96.0752 7.14521H94.7715V9.39682H93.4386ZM94.7715 5.92236H96.046C96.3443 5.92236 96.5876 5.82531 96.7757 5.6312C96.9702 5.43063 97.0675 5.17506 97.0675 4.86449C97.0675 4.55392 96.9605 4.30159 96.7465 4.10749C96.5389 3.91338 96.2697 3.81633 95.939 3.81633H94.7715V5.92236Z" fill="white"/>
<path d="M113.087 9.39682L110.48 2.60318H111.813L114.498 9.39682H113.087ZM107.707 9.39682L110.392 2.60318H111.725L109.118 9.39682H107.707ZM108.972 7.90222V6.72789H113.243V7.90222H108.972Z" fill="white"/>
<path d="M123.785 9.39682V2.60318H125.176L128.504 7.16462V2.60318H129.827V9.39682H128.504L125.118 4.74803V9.39682H123.785Z" fill="white"/>
<path d="M142.821 6.59202L141.566 6.27175L143.755 2.60318H145.273L142.821 6.59202ZM141.527 9.39682V6.13587H142.86V9.39682H141.527ZM141.566 6.59202L139.114 2.60318H140.632L142.821 6.27175L141.566 6.59202Z" fill="white"/>
<path d="M45.2725 35.0133V14.0133H49.2748V31.2633H58.2725V35.0133H45.2725Z" fill="white"/>
<path d="M77.0159 35.5133C74.8476 35.5133 72.9248 35.0467 71.2474 34.1136C69.5905 33.1601 68.2916 31.8618 67.3506 30.2187C66.4097 28.5552 65.9392 26.6585 65.9392 24.5285C65.9392 22.3579 66.4097 20.451 67.3506 18.8079C68.2916 17.1445 69.5803 15.8462 71.2167 14.913C72.8736 13.9799 74.776 13.5133 76.9238 13.5133C79.0921 13.5133 80.9945 13.99 82.631 14.9434C84.2879 15.8766 85.5868 17.1749 86.5278 18.8383C87.4687 20.4815 87.9392 22.3782 87.9392 24.5285C87.9392 26.6585 87.4687 28.5552 86.5278 30.2187C85.6073 31.8618 84.3185 33.1601 82.6616 34.1136C81.0252 35.0467 79.1433 35.5133 77.0159 35.5133ZM77.0159 31.7097C78.3251 31.7097 79.4706 31.4054 80.4524 30.7968C81.4548 30.168 82.2321 29.316 82.7844 28.2408C83.3571 27.1657 83.6435 25.9282 83.6435 24.5285C83.6435 23.1085 83.3571 21.8609 82.7844 20.7858C82.2116 19.7106 81.4241 18.8687 80.4218 18.2602C79.4194 17.6313 78.2535 17.3169 76.9238 17.3169C75.6351 17.3169 74.4794 17.6313 73.4566 18.2602C72.4543 18.8687 71.6668 19.7106 71.094 20.7858C70.5212 21.8609 70.2349 23.1085 70.2349 24.5285C70.2349 25.9282 70.5212 27.1657 71.094 28.2408C71.6668 29.316 72.4645 30.168 73.4873 30.7968C74.5101 31.4054 75.6863 31.7097 77.0159 31.7097Z" fill="white"/>
<path d="M106.859 35.5133C104.666 35.5133 102.719 35.0474 101.017 34.1155C99.3365 33.1634 98.0144 31.8669 97.051 30.226C96.0876 28.5648 95.6059 26.6606 95.6059 24.5133C95.6059 22.366 96.0876 20.4718 97.051 18.831C98.0144 17.1698 99.3365 15.8733 101.017 14.9415C102.719 13.9893 104.666 13.5133 106.859 13.5133C108.171 13.5133 109.38 13.7057 110.487 14.0906C111.594 14.4755 112.568 15.0124 113.408 15.7011C114.269 16.3696 114.987 17.1394 115.56 18.0105L112.117 20.1376C111.768 19.5906 111.307 19.1044 110.733 18.679C110.18 18.2536 109.565 17.9194 108.888 17.6763C108.212 17.4332 107.536 17.3116 106.859 17.3116C105.506 17.3116 104.307 17.6256 103.262 18.2536C102.216 18.8613 101.396 19.702 100.802 20.7757C100.208 21.8494 99.9104 23.0952 99.9104 24.5133C99.9104 25.9111 100.197 27.1569 100.771 28.2509C101.366 29.3448 102.196 30.2057 103.262 30.8337C104.328 31.4415 105.558 31.7453 106.951 31.7453C108.038 31.7453 109.001 31.5326 109.842 31.1072C110.702 30.6818 111.379 30.0842 111.871 29.3144C112.363 28.5446 112.609 27.6532 112.609 26.6404L116.606 26.0326C116.606 28.0381 116.186 29.7499 115.345 31.168C114.525 32.586 113.377 33.6698 111.902 34.4194C110.446 35.1486 108.765 35.5133 106.859 35.5133ZM107.566 27.005V23.7536H116.606V26.3365L114.331 27.005H107.566Z" fill="white"/>
<path d="M134.846 35.5133C132.776 35.5133 130.941 35.0467 129.339 34.1136C127.758 33.1601 126.518 31.8618 125.62 30.2187C124.722 28.5552 124.273 26.6585 124.273 24.5285C124.273 22.3579 124.722 20.451 125.62 18.8079C126.518 17.1445 127.748 15.8462 129.31 14.913C130.892 13.9799 132.708 13.5133 134.758 13.5133C136.828 13.5133 138.644 13.99 140.206 14.9434C141.787 15.8766 143.027 17.1749 143.925 18.8383C144.823 20.4815 145.273 22.3782 145.273 24.5285C145.273 26.6585 144.823 28.5552 143.925 30.2187C143.047 31.8618 141.816 33.1601 140.235 34.1136C138.673 35.0467 136.876 35.5133 134.846 35.5133ZM134.846 31.7097C136.095 31.7097 137.189 31.4054 138.126 30.7968C139.083 30.168 139.825 29.316 140.352 28.2408C140.899 27.1657 141.172 25.9282 141.172 24.5285C141.172 23.1085 140.899 21.8609 140.352 20.7858C139.805 19.7106 139.054 18.8687 138.097 18.2602C137.14 17.6313 136.027 17.3169 134.758 17.3169C133.528 17.3169 132.425 17.6313 131.448 18.2602C130.491 18.8687 129.74 19.7106 129.193 20.7858C128.646 21.8609 128.373 23.1085 128.373 24.5285C128.373 25.9282 128.646 27.1657 129.193 28.2408C129.74 29.316 130.501 30.168 131.478 30.7968C132.454 31.4054 133.577 31.7097 134.846 31.7097Z" fill="white"/>
</svg>
