<svg width="40" height="40" viewBox="0 0 40 40" fill="none" xmlns="http://www.w3.org/2000/svg">
<path d="M14 18.6667C14 19.2795 14.1207 19.8863 14.3552 20.4525C14.5898 21.0187 14.9335 21.5332 15.3668 21.9665C15.8002 22.3998 16.3146 22.7436 16.8808 22.9781C17.447 23.2126 18.0538 23.3333 18.6667 23.3333C19.2795 23.3333 19.8863 23.2126 20.4525 22.9781C21.0187 22.7436 21.5332 22.3998 21.9665 21.9665C22.3998 21.5332 22.7436 21.0187 22.9781 20.4525C23.2126 19.8863 23.3333 19.2795 23.3333 18.6667C23.3333 18.0538 23.2126 17.447 22.9781 16.8808C22.7436 16.3146 22.3998 15.8002 21.9665 15.3668C21.5332 14.9335 21.0187 14.5898 20.4525 14.3552C19.8863 14.1207 19.2795 14 18.6667 14C18.0538 14 17.447 14.1207 16.8808 14.3552C16.3146 14.5898 15.8002 14.9335 15.3668 15.3668C14.9335 15.8002 14.5898 16.3146 14.3552 16.8808C14.1207 17.447 14 18.0538 14 18.6667Z" stroke="#979DAA" stroke-width="2" stroke-linecap="round" stroke-linejoin="round"/>
<path d="M26 26L22 22" stroke="#979DAA" stroke-width="2" stroke-linecap="round" stroke-linejoin="round"/>
</svg>
